<?xml version="1.0" standalone="no"?>
<svg xmlns="http://www.w3.org/2000/svg" viewBox="0 0 181 29" width="181" height="29"><path fill="#000000" fill-rule="nonzero" d="M2.81 16.97L0.10 16.97Q0 16.97 0 16.85L0 16.85L0.05 0.38Q0.05 0.26 0.14 0.26L0.14 0.26L2.83 0.26Q2.93 0.26 2.93 0.38L2.93 0.38L2.93 6.07L6.70 0.36Q6.77 0.26 6.86 0.26L6.86 0.26L9.62 0.26Q9.72 0.26 9.67 0.36L9.67 0.36L5.52 6.98L10.18 16.87Q10.22 16.97 10.06 16.97L10.06 16.97L7.13 16.97Q7.01 16.97 6.98 16.87L6.98 16.87L3.74 9.82L2.90 11.14L2.90 16.85Q2.90 16.97 2.81 16.97L2.81 16.97ZM14.06 16.97L11.35 16.97Q11.26 16.97 11.26 16.85L11.26 16.85L11.30 0.36Q11.30 0.26 11.40 0.26L11.40 0.26L16.25 0.26Q17.54 0.26 18.64 0.90Q19.73 1.54 20.38 2.60Q21.02 3.67 21.02 5.02L21.02 5.02Q21.02 5.90 20.76 6.61Q20.50 7.32 20.14 7.81Q19.78 8.30 19.49 8.54L19.49 8.54Q20.78 9.98 20.78 11.93L20.78 11.93L20.81 16.85Q20.81 16.97 20.69 16.97L20.69 16.97L17.98 16.97Q17.88 16.97 17.88 16.90L17.88 16.90L17.88 11.93Q17.88 11.06 17.27 10.43Q16.66 9.79 15.77 9.79L15.77 9.79L14.18 9.79L14.16 16.85Q14.16 16.97 14.06 16.97L14.06 16.97ZM14.18 3.14L14.18 6.91L16.25 6.91Q16.99 6.91 17.57 6.36Q18.14 5.81 18.14 5.02L18.14 5.02Q18.14 4.25 17.58 3.70Q17.02 3.14 16.25 3.14L16.25 3.14L14.18 3.14ZM27.10 16.97L24.34 16.97Q24.26 16.97 24.26 16.87L24.26 16.87L24.29 10.06L21.07 0.36Q21.05 0.26 21.14 0.26L21.14 0.26L23.81 0.26Q23.93 0.26 23.95 0.36L23.95 0.36L25.73 6.82L27.53 0.36Q27.55 0.26 27.65 0.26L27.65 0.26L30.34 0.26Q30.43 0.26 30.41 0.36L30.41 0.36L27.17 9.96L27.19 16.87Q27.19 16.97 27.10 16.97L27.10 16.97ZM40.10 16.97L31.15 16.97Q31.03 16.97 31.03 16.85L31.03 16.85L31.06 14.23L36.94 3L31.37 3Q31.27 3 31.27 2.90L31.27 2.90L31.27 0.38Q31.27 0.26 31.37 0.26L31.37 0.26L40.06 0.26Q40.18 0.26 40.18 0.38L40.18 0.38L40.18 2.98L34.32 14.16L40.10 14.16Q40.20 14.16 40.20 14.28L40.20 14.28L40.22 16.85Q40.22 16.97 40.10 16.97L40.10 16.97ZM46.85 16.97L44.14 16.97Q44.04 16.97 44.04 16.85L44.04 16.85L44.04 3.17L40.92 3.17Q40.80 3.17 40.80 3.05L40.80 3.05L40.82 0.36Q40.82 0.26 40.92 0.26L40.92 0.26L50.04 0.26Q50.16 0.26 50.16 0.36L50.16 0.36L50.16 3.05Q50.16 3.17 50.06 3.17L50.06 3.17L46.92 3.17L46.94 16.85Q46.94 16.97 46.85 16.97L46.85 16.97ZM49.66 16.85L49.66 16.85L52.63 0.36Q52.66 0.26 52.75 0.26L52.75 0.26L56.23 0.26Q56.33 0.26 56.35 0.36L56.35 0.36L59.21 16.85Q59.23 16.97 59.11 16.97L59.11 16.97L56.45 16.97Q56.35 16.97 56.33 16.85L56.33 16.85L56.06 15.10L52.80 15.10L52.54 16.85Q52.51 16.97 52.42 16.97L52.42 16.97L49.75 16.97Q49.66 16.97 49.66 16.85ZM54.36 5.78L53.28 12.53L55.58 12.53L54.60 5.78L54.46 4.90L54.36 5.78ZM68.57 16.97L60.82 16.97Q60.72 16.97 60.72 16.85L60.72 16.85L60.74 0.38Q60.74 0.26 60.86 0.26L60.86 0.26L63.53 0.26Q63.65 0.26 63.65 0.38L63.65 0.38L63.62 14.02L68.57 14.02Q68.69 14.02 68.69 14.14L68.69 14.14L68.69 16.85Q68.69 16.97 68.57 16.97L68.57 16.97ZM69.43 16.85L69.43 16.85L72.41 0.36Q72.43 0.26 72.53 0.26L72.53 0.26L76.01 0.26Q76.10 0.26 76.13 0.36L76.13 0.36L78.98 16.85Q79.01 16.97 78.89 16.97L78.89 16.97L76.22 16.97Q76.13 16.97 76.10 16.85L76.10 16.85L75.84 15.10L72.58 15.10L72.31 16.85Q72.29 16.97 72.19 16.97L72.19 16.97L69.53 16.97Q69.43 16.97 69.43 16.85ZM74.14 5.78L73.06 12.53L75.36 12.53L74.38 5.78L74.23 4.90L74.14 5.78ZM83.30 16.97L80.59 16.97Q80.50 16.97 80.50 16.85L80.50 16.85L80.54 0.36Q80.54 0.26 80.64 0.26L80.64 0.26L85.49 0.26Q86.78 0.26 87.88 0.90Q88.97 1.54 89.62 2.60Q90.26 3.67 90.26 5.02L90.26 5.02Q90.26 5.90 90 6.61Q89.74 7.32 89.38 7.81Q89.02 8.30 88.73 8.54L88.73 8.54Q90.02 9.98 90.02 11.93L90.02 11.93L90.05 16.85Q90.05 16.97 89.93 16.97L89.93 16.97L87.22 16.97Q87.12 16.97 87.12 16.90L87.12 16.90L87.12 11.93Q87.12 11.06 86.51 10.43Q85.90 9.79 85.01 9.79L85.01 9.79L83.42 9.79L83.40 16.85Q83.40 16.97 83.30 16.97L83.30 16.97ZM83.42 3.14L83.42 6.91L85.49 6.91Q86.23 6.91 86.81 6.36Q87.38 5.81 87.38 5.02L87.38 5.02Q87.38 4.25 86.82 3.70Q86.26 3.14 85.49 3.14L85.49 3.14L83.42 3.14ZM96.36 17.21L96.36 17.21Q95.04 17.21 93.97 16.55Q92.90 15.89 92.28 14.78Q91.66 13.68 91.66 12.31L91.66 12.31L91.68 4.82Q91.68 3.50 92.29 2.41Q92.90 1.32 93.97 0.66Q95.04 0 96.36 0L96.36 0Q97.68 0 98.74 0.65Q99.79 1.30 100.42 2.39Q101.04 3.48 101.04 4.82L101.04 4.82L101.04 5.93Q101.04 6.02 100.94 6.02L100.94 6.02L98.26 6.02Q98.16 6.02 98.16 5.93L98.16 5.93L98.16 4.82Q98.16 4.03 97.64 3.46Q97.13 2.88 96.36 2.88L96.36 2.88Q95.50 2.88 95.04 3.47Q94.58 4.06 94.58 4.82L94.58 4.82L94.58 12.31Q94.58 13.20 95.10 13.75Q95.62 14.30 96.36 14.30L96.36 14.30Q97.13 14.30 97.64 13.69Q98.16 13.08 98.16 12.31L98.16 12.31L98.16 11.21Q98.16 11.11 98.26 11.11L98.26 11.11L100.97 11.11Q101.06 11.11 101.06 11.21L101.06 11.21L101.06 12.31Q101.06 13.68 100.43 14.78Q99.79 15.89 98.74 16.55Q97.68 17.21 96.36 17.21ZM105.62 16.97L102.91 16.97Q102.82 16.97 102.82 16.85L102.82 16.85L102.84 0.36Q102.84 0.26 102.96 0.26L102.96 0.26L105.62 0.26Q105.74 0.26 105.74 0.36L105.74 0.36L105.72 6.89L109.32 6.89L109.32 0.36Q109.32 0.26 109.42 0.26L109.42 0.26L112.08 0.26Q112.20 0.26 112.20 0.36L112.20 0.36L112.25 16.85Q112.25 16.97 112.13 16.97L112.13 16.97L109.44 16.97Q109.32 16.97 109.32 16.85L109.32 16.85L109.32 9.79L105.72 9.79L105.72 16.85Q105.72 16.97 105.62 16.97L105.62 16.97ZM118.66 17.21L118.66 17.21Q117.36 17.21 116.29 16.55Q115.22 15.89 114.58 14.80Q113.93 13.70 113.93 12.38L113.93 12.38L113.95 4.78Q113.95 3.46 114.59 2.38Q115.22 1.30 116.30 0.65Q117.38 0 118.66 0L118.66 0Q119.95 0 121.01 0.65Q122.06 1.30 122.70 2.38Q123.34 3.46 123.34 4.78L123.34 4.78L123.36 12.38Q123.36 13.70 122.72 14.80Q122.09 15.89 121.02 16.55Q119.95 17.21 118.66 17.21ZM118.66 14.30L118.66 14.30Q119.38 14.30 119.92 13.72Q120.46 13.13 120.46 12.38L120.46 12.38L120.43 4.78Q120.43 3.98 119.93 3.43Q119.42 2.88 118.66 2.88L118.66 2.88Q117.91 2.88 117.38 3.42Q116.86 3.96 116.86 4.78L116.86 4.78L116.86 12.38Q116.86 13.18 117.38 13.74Q117.91 14.30 118.66 14.30ZM129.26 17.21L129.26 17.21Q127.97 17.21 126.90 16.55Q125.83 15.89 125.20 14.80Q124.56 13.70 124.56 12.38L124.56 12.38L124.56 11.28Q124.56 11.16 124.68 11.16L124.68 11.16L127.37 11.16Q127.46 11.16 127.46 11.28L127.46 11.28L127.46 12.38Q127.46 13.18 127.99 13.74Q128.52 14.30 129.26 14.30L129.26 14.30Q130.01 14.30 130.54 13.73Q131.06 13.15 131.06 12.38L131.06 12.38Q131.06 11.50 129.91 10.85L129.91 10.85Q129.53 10.63 128.71 10.18Q127.90 9.72 127.18 9.31L127.18 9.31Q125.86 8.54 125.22 7.38Q124.58 6.22 124.58 4.75L124.58 4.75Q124.58 3.41 125.23 2.34Q125.88 1.27 126.95 0.65Q128.02 0.02 129.26 0.02L129.26 0.02Q130.54 0.02 131.60 0.66Q132.67 1.30 133.31 2.36Q133.94 3.43 133.94 4.75L133.94 4.75L133.94 6.72Q133.94 6.82 133.85 6.82L133.85 6.82L131.16 6.82Q131.06 6.82 131.06 6.72L131.06 6.72L131.04 4.75Q131.04 3.91 130.51 3.38Q129.98 2.86 129.26 2.86L129.26 2.86Q128.52 2.86 127.99 3.42Q127.46 3.98 127.46 4.75L127.46 4.75Q127.46 5.54 127.80 6.07Q128.14 6.60 129.02 7.08L129.02 7.08Q129.14 7.15 129.49 7.33Q129.84 7.51 130.25 7.74Q130.66 7.97 130.98 8.14Q131.30 8.30 131.38 8.35L131.38 8.35Q132.58 9.02 133.27 10.00Q133.97 10.97 133.97 12.38L133.97 12.38Q133.97 13.75 133.33 14.84Q132.70 15.94 131.63 16.57Q130.56 17.21 129.26 17.21Z" transform="translate(0, 5.897)"></path><line x1="142.96800000000002" y1="2%" x2="142.96800000000002" y2="98%" stroke="#000000" stroke-linecap="round"></line><g fill="#000000" color="#000000" transform="translate(151.96800000000002 0) scale(0.6904762)"><svg width="42.0" height="42.0" x="0.0" y="0.0" viewBox="0 0 42 42"><path fill="currentColor" fill-rule="nonzero" d="M21 41.41L41.41.59H.59L21 41.41zm0-7.61l-11.5-23h15.4l-1.7 3.4H15l6 12 9.4-18.8H7.8L6.1 4h29.8L21 33.8z"></path></svg></g></svg>